#!OML:ASF X:\für Bonn\!DataBase\2005_08_10_Bjorn_Final\c3d\bjorn.ASF
:FULLY-SPECIFIED
:DEGREES
479
root -0.116632 1.78314 11.4036 -2072.11 -10.989 198.07
lowerback 29.8027 7.24025 -1.36997
upperback 26.8401 1.25454 1.60861
thorax 14.2913 -3.98749 1.22856
lowerneck 18.4254 -0.532256 3.19869
upperneck 15.9334 -3.63576 4.99644
head 2.21695 -2.88931 1.15981
rclavicle 3.02153e-014 7.95139e-014
rhumerus 8.91249 -1.49176 -76.9844
rradius 36.2134
rwrist -14.8365
rhand -14.8412 8.5651
rfingers 7.12502
rthumb 11.3179 -21.1095
lclavicle 3.02153e-014 7.95139e-014
lhumerus 25.2214 -18.9513 74.1743
lradius 32.1134
lwrist -26.4696
lhand -51.481 -28.1404
lfingers 7.12502
lthumb -24.0099 720.378
rfemur -384.976 -14.2143 362.216
rtibia 61.1605
rfoot 30.1011 5.89374
rtoes -5.50218
lfemur -33.4443 -0.51685 -19.3058
ltibia 70.3465
lfoot 28.1128 5.32696
ltoes -7.6289
480
root -0.117449 1.77452 11.4239 -2072.71 -10.8004 198.24
lowerback 29.5826 7.22201 -1.48072
upperback 26.8019 1.30078 1.55892
thorax 14.3284 -3.94673 1.2329
lowerneck 18.3531 -0.499508 3.06428
upperneck 16.2242 -3.72605 5.24917
head 2.33925 -2.96166 1.2646
rclavicle 3.4191e-014 2.22639e-014
rhumerus 8.76566 -1.70732 -77.0251
rradius 36.3276
rwrist -14.9045
rhand -14.8506 8.49602
rfingers 7.12502
rthumb 11.3089 -21.1791
lclavicle 3.4191e-014 2.22639e-014
lhumerus 25.0944 -19.1892 74.1375
lradius 32.4747
lwrist -27.0525
lhand -52.074 -28.4547
lfingers 7.12502
lthumb -24.5784 719.988
rfemur -383.581 -14.1849 362.479
rtibia 59.3009
rfoot 29.5122 5.7665
rtoes -5.68145
lfemur -32.7319 -0.489634 -19.1015
ltibia 70.1515
lfoot 28.0583 5.24178
ltoes -7.19354
481
root -0.118031 1.76618 11.4454 -2073.34 -10.596 198.393
lowerback 29.383 7.20362 -1.5844
upperback 26.7561 1.34863 1.50029
thorax 14.3481 -3.90279 1.22434
lowerneck 18.266 -0.453808 2.90737
upperneck 16.5376 -3.81213 5.51983
head 2.47375 -3.03421 1.37921
rclavicle -2.38542e-014 -1.90833e-014
rhumerus 8.63153 -2.0485 -77.1147
rradius 36.4072
rwrist -14.797
rhand -14.8186 8.46075
rfingers 7.12502
rthumb 11.3397 -21.2127
lclavicle -2.38542e-014 -1.90833e-014
lhumerus 24.9439 -19.4305 74.1115
lradius 32.8409
lwrist -27.5987
lhand -52.5034 -28.5444
lfingers 7.12502
lthumb -24.99 719.841
rfemur -382.132 -14.1283 362.755
rtibia 57.4114
rfoot 28.8932 5.66218
rtoes -5.74451
lfemur -31.9845 -0.432745 -18.876
ltibia 69.9576
lfoot 28.0142 5.10396
ltoes -6.91335
482
root -0.118007 1.75843 11.4644 -2073.96 -10.4044 198.528
lowerback 29.1467 7.19554 -1.73802
upperback 26.7066 1.4084 1.43364
thorax 14.3762 -3.85695 1.23258
lowerneck 18.1273 -0.40335 2.75847
upperneck 16.8819 -3.89534 5.77434
head 2.62804 -3.10368 1.48663
rclavicle 1.27222e-014 -8.5875e-014
rhumerus 8.54831 -2.40688 -77.2029
rradius 36.4005
rwrist -14.8193
rhand -14.789 8.52016
rfingers 7.12502
rthumb 11.3682 -21.1517
lclavicle 1.27222e-014 -8.5875e-014
lhumerus 24.8085 -19.6258 74.0998
lradius 33.1771
lwrist -28.1977
lhand -52.8204 -28.6089
lfingers 7.12502
lthumb -25.2937 719.734
rfemur -380.692 -14.0709 363.019
rtibia 55.511
rfoot 28.2449 5.59449
rtoes -6.09662
lfemur -31.2395 -0.362382 -18.6557
ltibia 69.7703
lfoot 27.9792 5.03066
ltoes -6.54909
483
root -0.117944 1.75028 11.4835 -2074.57 -10.1839 198.656
lowerback 28.8644 7.16904 -1.86316
upperback 26.6501 1.46135 1.33984
thorax 14.4189 -3.80213 1.19829
lowerneck 17.9749 -0.335359 2.59397
upperneck 17.2315 -3.96463 6.05815
head 2.78881 -3.16767 1.60667
rclavicle -3.18055e-015 -3.81667e-014
rhumerus 8.49427 -2.81076 -77.324
rradius 36.3283
rwrist -15.0138
rhand -14.6637 8.68257
rfingers 7.12502
rthumb 11.4891 -20.9826
lclavicle -3.18055e-015 -3.81667e-014
lhumerus 24.7035 -19.7534 74.115
lradius 33.4371
lwrist -28.9553
lhand -53.1098 -28.639
lfingers 7.12502
lthumb -25.571 719.665
rfemur -379.255 -14.0041 363.318
rtibia 53.6
rfoot 27.6217 5.44797
rtoes -6.18394
lfemur -30.5116 -0.297834 -18.3979
ltibia 69.5895
lfoot 27.9219 4.90917
ltoes -6.359
484
root -0.118517 1.74211 11.5011 -2075.18 -9.99031 198.771
lowerback 28.5428 7.15107 -2.02523
upperback 26.6014 1.52337 1.24279
thorax 14.4877 -3.74801 1.17846
lowerneck 17.8147 -0.289417 2.44618
upperneck 17.5593 -4.04843 6.29176
head 2.94351 -3.23575 1.7082
rclavicle -6.36111e-015 7.63333e-014
rhumerus 8.51271 -3.16047 -77.4078
rradius 36.1703
rwrist -15.2774
rhand -14.5944 8.79202
rfingers 7.12502
rthumb 11.556 -20.8694
lclavicle -6.36111e-015 7.63333e-014
lhumerus 24.6599 -19.8909 74.1225
lradius 33.6622
lwrist -29.6742
lhand -53.3472 -28.7193
lfingers 7.12502
lthumb -25.7983 719.551
rfemur -377.833 -13.9467 363.58
rtibia 51.6935
rfoot 27.0116 5.31821
rtoes -6.35177
lfemur -29.7861 -0.222886 -18.1668
ltibia 69.4089
lfoot 27.8894 4.79671
ltoes -6.24819
485
root -0.117888 1.73439 11.5185 -2075.76 -9.77949 198.873
lowerback 28.1785 7.13039 -2.19711
upperback 26.5172 1.60335 1.12963
thorax 14.5302 -3.67236 1.14905
lowerneck 17.7204 -0.257065 2.34506
upperneck 17.8566 -4.13529 6.4789
head 3.07682 -3.30604 1.78776
rclavicle -1.90833e-014 1.90833e-014
rhumerus 8.51248 -3.38348 -77.4485
rradius 35.9442
rwrist -15.5584
rhand -14.6468 8.75641
rfingers 7.12502
rthumb 11.5054 -20.9078
lclavicle -1.90833e-014 1.90833e-014
lhumerus 24.5908 -20.0441 74.1913
lradius 33.8151
lwrist -30.4416
lhand -53.6178 -28.7494
lfingers 7.12502
lthumb -26.0574 719.483
rfemur -376.454 -13.8738 363.877
rtibia 49.7996
rfoot 26.4442 5.11205
rtoes -6.43573
lfemur -29.0768 -0.145463 -17.9056
ltibia 69.2223
lfoot 27.8444 4.64522
ltoes -6.38365
486
root -0.117773 1.72747 11.5357 -2076.31 -9.59744 198.955
lowerback 27.7077 7.11831 -2.40586
upperback 26.463 1.69524 1.00089
thorax 14.6588 -3.59728 1.11822
lowerneck 17.6422 -0.232644 2.24589
upperneck 18.0786 -4.21211 6.66012
head 3.18069 -3.36795 1.86579
rclavicle 2.70347e-014 -3.18055e-015
rhumerus 8.61526 -3.49022 -77.4627
rradius 35.6544
rwrist -15.8538
rhand -14.8353 8.61422
rfingers 7.12502
rthumb 11.3236 -21.0601
lclavicle 2.70347e-014 -3.18055e-015
lhumerus 24.6569 -20.3315 74.1479
lradius 33.9318
lwrist -30.8823
lhand -53.966 -28.8634
lfingers 7.12502
lthumb -26.3908 719.32
rfemur -375.124 -13.7998 364.15
rtibia 47.9205
rfoot 25.8411 5.04091
rtoes -6.97514
lfemur -28.3857 -0.0407846 -17.6694
ltibia 69.0361
lfoot 27.8002 4.54502
ltoes -6.46354
487
root -0.117615 1.72114 11.554 -2076.85 -9.42009 199.002
lowerback 27.1969 7.11825 -2.61311
upperback 26.3815 1.82332 0.847121
thorax 14.7722 -3.49175 1.05898
lowerneck 17.6328 -0.236867 2.21337
upperneck 18.2738 -4.31601 6.8238
head 3.26455 -3.44391 1.92835
rclavicle 1.90833e-014 5.725e-014
rhumerus 8.72522 -3.69087 -77.5209
rradius 35.2684
rwrist -16.1527
rhand -15.0744 8.38035
rfingers 7.12502
rthumb 11.093 -21.3065
lclavicle 1.90833e-014 5.725e-014
lhumerus 24.7829 -20.8116 74.0482
lradius 33.959
lwrist -31.1558
lhand -54.4696 -28.9004
lfingers 7.12502
lthumb -26.8727 719.21
rfemur -373.833 -13.6731 364.43
rtibia 46.0574
rfoot 25.1922 4.88554
rtoes -7.46196
lfemur -27.6958 0.0811215 -17.4338
ltibia 68.836
lfoot 27.7571 4.42204
ltoes -6.80178
488
root -0.117801 1.71563 11.5706 -2077.4 -9.25729 199.025
lowerback 26.6656 7.13693 -2.82713
upperback 26.3067 1.97743 0.689797
thorax 14.9056 -3.37581 0.996609
lowerneck 17.6359 -0.266634 2.2367
upperneck 18.4275 -4.42684 6.93421
head 3.32938 -3.51796 1.96353
rclavicle -1.59028e-015 -6.67916e-014
rhumerus 8.88969 -3.8896 -77.551
rradius 34.8494
rwrist -16.6152
rhand -15.4033 8.03926
rfingers 7.12502
rthumb 10.7757 -21.6643
lclavicle -1.59028e-015 -6.67916e-014
lhumerus 25.0001 -21.3466 73.9426
lradius 33.8513
lwrist -31.4
lhand -55.1633 -29.284
lfingers 7.12502
lthumb -27.5364 718.722
rfemur -372.529 -13.5553 364.696
rtibia 44.2056
rfoot 24.5234 4.76549
rtoes -8.14101
lfemur -26.97 0.219943 -17.2053
ltibia 68.6348
lfoot 27.6824 4.35885
ltoes -7.25403
489
root -0.117473 1.71024 11.5863 -2077.95 -9.14966 199.036
lowerback 26.1226 7.16996 -3.10269
upperback 26.2085 2.15407 0.522247
thorax 15.0135 -3.25122 0.957845
lowerneck 17.6769 -0.30676 2.25746
upperneck 18.5616 -4.54716 7.03254
head 3.38146 -3.59842 1.99599
rclavicle 3.33958e-014 -6.04305e-014
rhumerus 9.07636 -4.1491 -77.5944
rradius 34.4433
rwrist -17.1943
rhand -15.7835 7.48662
rfingers 7.12502
rthumb 10.409 -22.2357
lclavicle 3.33958e-014 -6.04305e-014
lhumerus 25.3054 -21.9919 73.8438
lradius 33.6021
lwrist -31.3457
lhand -55.8502 -30.1051
lfingers 7.12502
lthumb -28.193 717.795
rfemur -371.232 -13.404 364.915
rtibia 42.3624
rfoot 23.8544 4.67382
rtoes -8.66105
lfemur -26.2391 0.364813 -17.026
ltibia 68.4285
lfoot 27.5952 4.32039
ltoes -7.6803
